<?xml version="1.0" encoding="UTF-8" standalone="no"?>
<svg
   viewBox="0 0 50 50"
   width="50"
   height="50"
   version="1.1"
   id="svg17"
   xmlns="http://www.w3.org/2000/svg"
   xmlns:svg="http://www.w3.org/2000/svg">
  <defs
     id="defs17" />
  <g
     id="g13"
     transform="translate(-24.686192,-24.686192)">
    <path
       fill="#e1e0d8"
       d="M 64.519,71.85 H 37 c -1.571,0 -2.85,-1.278 -2.85,-2.85 0,-1.572 1.278,-2.85 2.85,-2.85 h 27.531 l -0.36,0.414 C 63.577,67.248 63.25,68.112 63.25,69 c 0,0.887 0.324,1.753 0.913,2.437 z"
       id="path11" />
    <path
       fill="#bd977c"
       d="M 34.15,66.529 V 31 c 0,-1.572 1.278,-2.85 2.85,-2.85 h 26 c 1.571,0 2.85,1.278 2.85,2.85 V 65.25 H 37 c -0.895,0 -1.737,0.319 -2.437,0.922 z"
       id="path12" />
    <path
       fill="#9f8066"
       d="m 43,28.15 h -6 c -1.571,0 -2.85,1.278 -2.85,2.85 v 35.529 l 0.413,-0.356 C 35.262,65.569 36.105,65.251 37,65.251 h 6 z"
       id="path13" />
  </g>
  <g
     id="g15"
     transform="translate(-24.686192,-24.686192)">
    <path
       fill="#472b29"
       d="M 66.599,66.431 C 66.834,66.394 67,66.181 67,65.944 V 31 c 0,-2.209 -1.791,-4 -4,-4 H 37 c -2.209,0 -4,1.791 -4,4 v 38 c 0,0.552 0.112,1.078 0.314,1.557 0.202,0.479 0.495,0.91 0.857,1.271 0.181,0.181 0.379,0.345 0.592,0.488 0.426,0.288 0.909,0.495 1.43,0.602 C 36.454,72.972 36.724,73 37,73 c 0.087,0 29.235,0 29.3,0 0.386,0 0.699,-0.313 0.7,-0.699 v 0 c 0,0 0,0 0,-0.001 0,-10e-4 0,0 0,0 0,-0.003 -0.002,-0.006 -0.002,-0.009 C 66.993,71.916 66.724,71.613 66.359,71.52 65.235,71.234 64.4,70.213 64.4,69 c 0,-1.297 0.955,-2.376 2.199,-2.569 z M 37,28.4 h 26 c 1.436,0 2.6,1.164 2.6,2.6 v 34 c 0,0 -26.57,0 -28.6,0 -0.998,0 -1.899,0.379 -2.6,0.983 V 31 c 0,-1.436 1.164,-2.6 2.6,-2.6 z m 0,43.2 c -1.434,0 -2.6,-1.166 -2.6,-2.6 0,-1.434 1.166,-2.6 2.6,-2.6 H 63.983 C 63.376,67.098 63,68.001 63,69 c 0,0.996 0.371,1.9 0.974,2.6 z"
       id="path14" />
    <path
       fill="#472b29"
       d="M 42.625,55 C 42.418,55 42.25,54.832 42.25,54.625 V 44.375 C 42.25,44.168 42.418,44 42.625,44 42.832,44 43,44.168 43,44.375 v 10.25 C 43,54.832 42.832,55 42.625,55 Z m 0,5 C 42.418,60 42.25,59.832 42.25,59.625 v -1.25 C 42.25,58.168 42.418,58 42.625,58 42.832,58 43,58.168 43,58.375 v 1.25 C 43,59.832 42.832,60 42.625,60 Z m 0,3 C 42.418,63 42.25,62.832 42.25,62.625 v -1.25 C 42.25,61.168 42.418,61 42.625,61 42.832,61 43,61.168 43,61.375 v 1.25 C 43,62.832 42.832,63 42.625,63 Z m 21,6 H 38.375 C 38.168,69 38,68.832 38,68.625 38,68.418 38.168,68.25 38.375,68.25 h 25.25 C 63.832,68.25 64,68.418 64,68.625 64,68.832 63.832,69 63.625,69 Z m 0,1.75 H 48.375 C 48.168,70.75 48,70.582 48,70.375 48,70.168 48.168,70 48.375,70 h 15.25 c 0.207,0 0.375,0.168 0.375,0.375 0,0.207 -0.168,0.375 -0.375,0.375 z m -17,0 h -1.25 C 45.168,70.75 45,70.582 45,70.375 45,70.168 45.168,70 45.375,70 h 1.25 c 0.207,0 0.375,0.168 0.375,0.375 0,0.207 -0.168,0.375 -0.375,0.375 z"
       id="path15" />
  </g>
  <g
     id="g17"
     transform="translate(-24.686192,-24.686192)">
    <path
       fill="#ee3e54"
       d="m 38.25,26.25 h 10.5 v 20.5 L 43.5,44.375 38.25,46.75 Z"
       id="path16" />
    <path
       fill="#472b29"
       d="m 48.625,47 c -0.051,0 -0.103,-0.01 -0.15,-0.032 L 43.5,44.785 38.525,46.969 C 38.41,47.02 38.275,47.009 38.17,46.94 38.063,46.87 38,46.751 38,46.625 V 26.375 C 38,26.168 38.168,26 38.375,26 h 10.25 C 48.832,26 49,26.168 49,26.375 v 20.25 c 0,0.126 -0.063,0.245 -0.17,0.314 C 48.769,46.979 48.696,47 48.625,47 Z M 43.5,44 c 0.052,0 0.103,0.011 0.15,0.032 l 4.6,2.019 V 26.75 h -9.5 v 19.301 l 4.6,-2.019 C 43.397,44.011 43.448,44 43.5,44 Z"
       id="path17" />
  </g>
</svg>
